<?xml version="1.0" encoding="UTF-8"?>
<svg width="26px" height="20px" viewBox="0 0 26 20" version="1.1" xmlns="http://www.w3.org/2000/svg" xmlns:xlink="http://www.w3.org/1999/xlink">
    <!-- Generator: Sketch 47.1 (45422) - http://www.bohemiancoding.com/sketch -->
    <title>chat-icon</title>
    <desc>Created with Sketch.</desc>
    <defs></defs>
    <g id="User-Interface" stroke="none" stroke-width="1" fill="none" fill-rule="evenodd">
        <g id="Signup-Page-Copy" transform="translate(-192.000000, -530.000000)" fill="#2F313D">
            <g id="Navbar" transform="translate(124.000000, 44.000000)">
                <g id="1" transform="translate(0.000000, 168.000000)">
                    <g id="Content" transform="translate(24.000000, 31.000000)">
                        <path d="M54.1964403,288.928552 C49.8437565,288.928552 46.1607164,291.383912 46.1607164,294.285702 C46.1607164,295.820302 47.1930837,297.299098 48.9788001,298.331465 L50.3320384,299.112716 L49.8437565,300.284593 C50.1367256,300.117182 50.4296947,299.93582 50.7087129,299.740507 L51.3225529,299.308029 L52.0619511,299.447538 C52.7594966,299.573096 53.470993,299.642851 54.1964403,299.642851 C58.549124,299.642851 62.2321641,297.187491 62.2321641,294.285702 C62.2321641,291.383912 58.549124,288.928552 54.1964403,288.928552 Z M54.1964403,287.142836 C59.6233441,287.142836 64.0178806,290.337594 64.0178806,294.285702 C64.0178806,298.233809 59.6233441,301.428567 54.1964403,301.428567 C53.3454348,301.428567 52.5223311,301.344862 51.7410802,301.205353 C50.5831547,302.028456 49.2717692,302.628345 47.8627274,302.991069 C47.4860528,303.088725 47.0814764,303.15848 46.6629492,303.214284 L46.6210964,303.214284 C46.4118328,303.214284 46.2165201,303.046873 46.1746673,302.809707 C46.1188637,302.54464 46.3002255,302.377229 46.4536855,302.195867 C46.997771,301.582027 47.611611,301.037942 48.0859419,299.880016 C45.8258946,298.568631 44.375,296.545749 44.375,294.285702 C44.375,290.337594 48.7695365,287.142836 54.1964403,287.142836 Z M65.6640879,303.451449 C66.1384188,304.609375 66.7522588,305.15346 67.2963443,305.7673 C67.4498043,305.948662 67.6311661,306.116073 67.5753625,306.38114 C67.5195588,306.632256 67.3102952,306.813618 67.0870806,306.785716 C66.6685534,306.729913 66.263977,306.660158 65.8873024,306.562502 C64.4782606,306.199778 63.1668751,305.599889 62.0089496,304.776785 C61.2276987,304.916295 60.404595,305 59.5535895,305 C57.0284749,305 54.7126239,304.302455 52.9687602,303.15848 C53.3733366,303.186382 53.7918639,303.214284 54.1964403,303.214284 C57.1958858,303.214284 60.0279204,302.349327 62.1903114,300.786825 C64.5201133,299.084814 65.803597,296.782914 65.803597,294.285702 C65.803597,293.560254 65.6919897,292.848758 65.4827261,292.165163 C67.8404298,293.462598 69.3750298,295.527332 69.3750298,297.857134 C69.3750298,300.131133 67.9241352,302.140064 65.6640879,303.451449 Z" id="chat-icon"></path>
                    </g>
                </g>
            </g>
        </g>
    </g>
</svg>