<?xml version="1.0" encoding="UTF-8"?>
<svg width="14px" height="26px" viewBox="0 0 14 26" version="1.1" xmlns="http://www.w3.org/2000/svg" xmlns:xlink="http://www.w3.org/1999/xlink">
    <!-- Generator: Sketch 47.1 (45422) - http://www.bohemiancoding.com/sketch -->
    <title>dollar-icon</title>
    <desc>Created with Sketch.</desc>
    <defs></defs>
    <g id="User-Interface" stroke="none" stroke-width="1" fill="none" fill-rule="evenodd">
        <g id="Signup-Page-Copy" transform="translate(-197.000000, -438.000000)" fill="#2F313D">
            <g id="Navbar" transform="translate(124.000000, 44.000000)">
                <g id="1" transform="translate(0.000000, 168.000000)">
                    <g id="Content" transform="translate(24.000000, 31.000000)">
                        <path d="M62.8761323,212.103231 C62.8761323,208.741062 59.9743432,207.611038 57.4073758,206.620523 C55.4263467,205.853223 53.7243357,205.197531 53.7243357,203.718734 C53.7243357,202.449201 54.9520157,201.570294 56.7237813,201.570294 C58.8164177,201.570294 60.5044777,203.063041 60.5184286,203.076992 C60.6300359,203.160698 60.7555941,203.202551 60.8951032,203.174649 C61.0346123,203.160698 61.1462196,203.076992 61.2159741,202.951434 L62.3459978,200.914601 C62.4436541,200.74719 62.4157523,200.537927 62.2762432,200.384467 C62.2204396,200.328663 60.7137414,198.794063 57.8817067,198.473192 L57.8817067,196.017832 C57.8817067,195.766716 57.686394,195.571403 57.4352776,195.571403 L55.5519049,195.571403 C55.3147394,195.571403 55.1054758,195.766716 55.1054758,196.017832 L55.1054758,198.528996 C52.1897357,199.087032 50.1808047,201.20757 50.1808047,203.774538 C50.1808047,207.276216 53.3058084,208.531798 55.8169721,209.522313 C57.7003449,210.275662 59.3465522,210.931354 59.3465522,212.270642 C59.3465522,213.847094 57.8677558,214.572542 56.5005667,214.572542 C54.0312557,214.572542 52.0781284,212.70312 52.0502266,212.689169 C51.9665211,212.591513 51.8409629,212.54966 51.7154047,212.563611 C51.5898466,212.577562 51.4642884,212.633365 51.3945338,212.731022 L49.9575902,214.614394 C49.832032,214.781805 49.8459829,215.018971 49.985492,215.186382 C50.0552465,215.270087 51.8409629,217.223215 55.1054758,217.683595 L55.1054758,220.125004 C55.1054758,220.37612 55.3147394,220.571433 55.5519049,220.571433 L57.4352776,220.571433 C57.686394,220.571433 57.8817067,220.37612 57.8817067,220.125004 L57.8817067,217.683595 C60.8392996,217.195313 62.8761323,214.949216 62.8761323,212.103231 Z" id="dollar-icon"></path>
                    </g>
                </g>
            </g>
        </g>
    </g>
</svg>