<?xml version="1.0" encoding="UTF-8"?>
<svg width="67px" height="67px" viewBox="0 0 67 67" version="1.1" xmlns="http://www.w3.org/2000/svg" xmlns:xlink="http://www.w3.org/1999/xlink">
    <!-- Generator: Sketch 47.1 (45422) - http://www.bohemiancoding.com/sketch -->
    <title>domestic-violence-icon</title>
    <desc>Created with Sketch.</desc>
    <defs>
        <polygon id="path-1" points="3.0575928 0.0816380597 18.1553058 0.0816380597 18.1553058 6.75224745 3.0575928 6.75224745 3.0575928 0.0816380597"></polygon>
        <polygon id="path-3" points="2.90032091e-16 27.1410165 2.90032091e-16 5.30429716 9.77249384 5.30429716 9.77249384 27.1410165"></polygon>
    </defs>
    <g id="User-Interface" stroke="none" stroke-width="1" fill="none" fill-rule="evenodd">
        <g id="domestic-violence-icon" transform="translate(3.000000, 3.000000)">
            <circle id="Oval-5" stroke="#2F313D" stroke-width="4.5" cx="30.5" cy="30.5" r="30.5"></circle>
            <g id="Group-10" transform="translate(20.000000, 7.000000)">
                <path d="M20.5236994,41.3284196 C18.7199471,37.6768414 16.8759366,34.0478863 14.9598315,30.25 C13.9061773,32.0828526 12.9766295,33.7741389 11.970082,35.4114859 C11.5979482,36.0169703 11.6044265,36.4791104 11.924456,37.0864719 C13.6519491,40.3659077 15.3472357,43.6646076 17.0598286,46.9530334 C17.143214,47.1131721 17.2852745,47.238438 17.4465849,47.4375 C18.508661,45.7095625 19.5364018,44.0859474 20.5004699,42.4203464 C20.6584487,42.1473894 20.6660376,41.6165903 20.5236994,41.3284196" id="Fill-6" fill="#2F313D"></path>
                <mask id="mask-2" fill="white">
                    <use xlink:href="#path-1"></use>
                </mask>
                <g id="Clip-9"></g>
                <path d="M17.7234717,6.75224745 C18.5229488,4.23564791 18.293181,3.48530704 16.3488312,2.07659471 C12.512293,-0.702948261 8.09216227,-0.571982986 4.37968087,2.43140628 C2.94296236,3.5936851 2.69316295,4.88844853 3.5525364,6.71841729 C8.25013387,3.88964839 12.9489213,3.85966717 17.7234717,6.75224745" id="Fill-8" fill="#2F313D"></path>
                <path d="M21.8741334,10.3905215 C21.638789,8.55509951 21.0783289,6.86005544 19.7200083,5.27822581 C19.6923035,5.45092242 19.6614659,5.62123975 19.6308242,5.7918545 C19.3230361,6.99161022 17.9667713,10.7459276 12.0348998,21.5078415 C8.34858916,27.8590521 4.69673824,34.230784 1.05036954,40.6056883 C1.05036954,40.6056883 0.689423387,40.8256733 0.770482084,41.405228 C0.758538653,41.5259769 0.769405217,41.6318552 0.815514694,41.7040269 C0.838422586,41.7400136 0.861819964,41.7756038 0.884825753,41.8113922 C0.996428307,42.0863982 1.19241805,42.4152356 1.51714233,42.8067275 L2.27995557,43.913691 C2.76904887,44.6309471 3.26616971,45.3470135 3.76573799,46.0702177 L4.23427292,46.75 C4.43613648,46.5360624 4.5035875,46.4862956 4.54313788,46.4195764 C9.43093814,38.1765349 14.3369472,29.9444976 19.1927352,21.6821243 C21.2301671,18.2154033 22.4008191,14.4985597 21.8741334,10.3905215" id="Fill-1" fill="#231F20"></path>
                <mask id="mask-4" fill="white">
                    <use xlink:href="#path-3"></use>
                </mask>
                <g id="Clip-4"></g>
                <path d="M6.49751566,27.1410165 C7.44338669,25.6311046 8.21252945,24.2144254 9.16619152,22.9375951 C10.0058481,21.8133365 9.95446669,21.0013774 9.12930738,19.8298066 C6.02305152,15.4197427 3.1829729,10.8489568 2.06116255,5.30429716 C1.76963979,5.83934131 1.44784048,6.35997317 1.19162393,6.91161631 C-0.148631241,9.79666026 -0.329896069,12.792331 0.504829448,15.8364072 C1.650506,20.0145822 4.02647566,23.5295927 6.49751566,27.1410165" id="Fill-3" fill="#231F20"></path>
            </g>
        </g>
    </g>
</svg>