<?xml version="1.0" encoding="UTF-8"?>
<svg width="91px" height="74px" viewBox="0 0 91 74" version="1.1" xmlns="http://www.w3.org/2000/svg" xmlns:xlink="http://www.w3.org/1999/xlink">
    <!-- Generator: Sketch 47.1 (45422) - http://www.bohemiancoding.com/sketch -->
    <title>donate-icon</title>
    <desc>Created with Sketch.</desc>
    <defs></defs>
    <g id="User-Interface" stroke="none" stroke-width="1" fill="none" fill-rule="evenodd" stroke-linejoin="round">
        <g id="Landing-Page" transform="translate(-1192.000000, -1826.000000)">
            <g id="donate-icon" transform="translate(1195.000000, 1830.000000)">
                <path d="M55.4768052,0.373763478 C47.6867009,0.373763478 40.9540226,4.90185043 37.7652922,11.4677635 C34.5758139,4.90185043 27.8438835,0.373763478 20.0537791,0.373763478 C9.18487478,0.373763478 0.373987826,9.18465043 0.373987826,20.0535548 C0.373987826,48.7917635 37.7652922,66.0844939 37.7652922,66.0844939 C37.7652922,66.0844939 75.1565965,48.7917635 75.1565965,20.0535548 C75.1565965,9.18465043 66.3457096,0.373763478 55.4768052,0.373763478 Z" id="Stroke-1" stroke="#2F313D" stroke-width="6"></path>
                <path d="M60.7115878,0.373763478 C52.9214835,0.373763478 46.1888052,4.90185043 43.0000748,11.4677635 C39.8105965,4.90185043 33.0786661,0.373763478 25.2885617,0.373763478 C14.4196574,0.373763478 5.60877043,9.18465043 5.60877043,20.0535548 C5.60877043,48.7917635 43.0000748,66.0844939 43.0000748,66.0844939 C43.0000748,66.0844939 80.3913791,48.7917635 80.3913791,20.0535548 C80.3913791,9.18465043 71.5804922,0.373763478 60.7115878,0.373763478 Z" id="Stroke-3" stroke="#FFFFFF" stroke-width="7"></path>
                <path d="M65.9463704,0.373763478 C58.1562661,0.373763478 51.4235878,4.90185043 48.2348574,11.4677635 C45.0453791,4.90185043 38.3134487,0.373763478 30.5233443,0.373763478 C19.65444,0.373763478 10.843553,9.18465043 10.843553,20.0535548 C10.843553,48.7917635 48.2348574,66.0844939 48.2348574,66.0844939 C48.2348574,66.0844939 85.6261617,48.7917635 85.6261617,20.0535548 C85.6261617,9.18465043 76.8152748,0.373763478 65.9463704,0.373763478 Z" id="Stroke-5" stroke="#FF6B6B" stroke-width="4"></path>
            </g>
        </g>
    </g>
</svg>