<?xml version="1.0" encoding="UTF-8"?>
<svg width="28px" height="26px" viewBox="0 0 28 26" version="1.1" xmlns="http://www.w3.org/2000/svg" xmlns:xlink="http://www.w3.org/1999/xlink">
    <!-- Generator: Sketch 47.1 (45422) - http://www.bohemiancoding.com/sketch -->
    <title>followers-icon-hover</title>
    <desc>Created with Sketch.</desc>
    <defs></defs>
    <g id="User-Interface" stroke="none" stroke-width="1" fill="none" fill-rule="evenodd">
        <g id="Signup-Page-Copy" transform="translate(-190.000000, -391.000000)" fill="#FF6B6B">
            <g id="Navbar" transform="translate(124.000000, 44.000000)">
                <g id="1" transform="translate(0.000000, 168.000000)">
                    <g id="Content" transform="translate(24.000000, 31.000000)">
                        <path d="M50.7550322,161.071418 C49.3041376,161.113271 47.9927521,161.741062 47.0580412,162.857134 L45.1886193,162.857134 C43.7935283,162.857134 42.4821429,162.187491 42.4821429,160.63894 C42.4821429,159.508916 42.4402901,155.714269 44.2120556,155.714269 C44.5050247,155.714269 45.9559193,156.900096 47.8392921,156.900096 C48.4810339,156.900096 49.094874,156.788489 49.6947631,156.579225 C49.6529103,156.886145 49.6250085,157.193065 49.6250085,157.499985 C49.6250085,158.769518 50.0295849,160.0251 50.7550322,161.071418 Z M65.6964562,169.958147 C65.6964562,172.218195 64.2037089,173.571433 61.9715634,173.571433 L49.7784685,173.571433 C47.546323,173.571433 46.0535757,172.218195 46.0535757,169.958147 C46.0535757,166.805242 46.7929739,161.964276 50.8805904,161.964276 C51.3549213,161.964276 53.0848341,163.903453 55.875016,163.903453 C58.6651979,163.903453 60.3951106,161.964276 60.8694416,161.964276 C64.957058,161.964276 65.6964562,166.805242 65.6964562,169.958147 Z M51.4107249,152.142836 C51.4107249,154.109914 49.8063703,155.714269 47.8392921,155.714269 C45.8722139,155.714269 44.2678593,154.109914 44.2678593,152.142836 C44.2678593,150.175758 45.8722139,148.571403 47.8392921,148.571403 C49.8063703,148.571403 51.4107249,150.175758 51.4107249,152.142836 Z M61.2321652,157.499985 C61.2321652,160.457578 58.8326088,162.857134 55.875016,162.857134 C52.9174232,162.857134 50.5178667,160.457578 50.5178667,157.499985 C50.5178667,154.542392 52.9174232,152.142836 55.875016,152.142836 C58.8326088,152.142836 61.2321652,154.542392 61.2321652,157.499985 Z M69.2678891,160.63894 C69.2678891,162.187491 67.9565036,162.857134 66.5614126,162.857134 L64.6919908,162.857134 C63.7572798,161.741062 62.4458943,161.113271 60.9949997,161.071418 C61.720447,160.0251 62.1250234,158.769518 62.1250234,157.499985 C62.1250234,157.193065 62.0971216,156.886145 62.0552689,156.579225 C62.655158,156.788489 63.268998,156.900096 63.9107398,156.900096 C65.7941126,156.900096 67.2450072,155.714269 67.5379763,155.714269 C69.3097418,155.714269 69.2678891,159.508916 69.2678891,160.63894 Z M67.4821727,152.142836 C67.4821727,154.109914 65.8778181,155.714269 63.9107398,155.714269 C61.9436616,155.714269 60.339307,154.109914 60.339307,152.142836 C60.339307,150.175758 61.9436616,148.571403 63.9107398,148.571403 C65.8778181,148.571403 67.4821727,150.175758 67.4821727,152.142836 Z" id="followers-icon-hover"></path>
                    </g>
                </g>
            </g>
        </g>
    </g>
</svg>