<?xml version="1.0" encoding="UTF-8"?>
<svg width="67px" height="67px" viewBox="0 0 67 67" version="1.1" xmlns="http://www.w3.org/2000/svg" xmlns:xlink="http://www.w3.org/1999/xlink">
    <!-- Generator: Sketch 47.1 (45422) - http://www.bohemiancoding.com/sketch -->
    <title>food-resources-icon</title>
    <desc>Created with Sketch.</desc>
    <defs>
        <polygon id="path-1" points="22 8.22733694e-15 30.755888 8.22733694e-15 30.755888 49.4440013 22 49.4440013 22 0"></polygon>
        <polygon id="path-3" points="15.6190801 50.2659228 0.4 50.2659228 0.4 2.7 15.6190801 2.7"></polygon>
    </defs>
    <g id="User-Interface" stroke="none" stroke-width="1" fill="none" fill-rule="evenodd">
        <g id="food-resources-icon" transform="translate(3.000000, 3.000000)">
            <circle id="Oval-5" stroke="#2F313D" stroke-width="4.5" cx="30.5" cy="30.5" r="30.5"></circle>
            <g id="Group-9" transform="translate(15.000000, 12.000000)">
                <mask id="mask-2" fill="white">
                    <use xlink:href="#path-1"></use>
                </mask>
                <g id="Clip-5"></g>
                <path d="M30.1155083,35.8631124 C30.3125239,33.2093624 30.9089145,8.60062559 30.7190708,1.12713875 C30.6933364,0.111954539 29.5566645,-0.376387566 28.8888364,0.340059802 C27.3568676,1.98369138 25.2278051,4.94688875 23.7692426,9.66284928 C21.938727,15.5818624 21.4663676,32.5267835 22.645227,35.600994 C23.7145395,38.3892045 24.712977,37.3268361 25.4833208,38.6016782 C26.7146333,40.6398624 26.3079458,43.0604414 25.9269926,48.6956256 C25.9101176,48.9465993 25.8916958,49.1956914 25.8727114,49.4440598 C27.5098676,48.9004282 29.0861333,48.2177045 30.5884301,47.4087703 C30.2191489,42.405073 29.9582895,37.9811914 30.1155083,35.8631124" id="Fill-4" fill="#2F313D"></path>
                <mask id="mask-4" fill="white">
                    <use xlink:href="#path-3"></use>
                </mask>
                <g id="Clip-2"></g>
                <path d="M10.817065,31.5939877 C12.0996421,29.0645946 13.9509421,28.8699154 15.264265,26.5455461 C15.9406707,25.3484485 15.4654964,7.98765994 15.3363935,3.6676491 C15.3200735,3.12858163 14.8721478,2.7 14.3251364,2.7 L14.3249907,2.7 C13.7663221,2.7 13.3132964,3.14639729 13.3132964,3.69738976 L13.3132964,19.3452886 C13.3132964,19.8668277 12.9554221,20.3531666 12.4339107,20.4396587 C11.7713478,20.5494262 11.1919878,20.0426855 11.1919878,19.4087928 L11.1919878,3.69738976 C11.1919878,3.14639729 10.7389621,2.7 10.1802935,2.7 L10.0819364,2.7 C9.52326781,2.7 9.0702421,3.14639729 9.0702421,3.69738976 L9.0702421,19.3452886 C9.0702421,19.8668277 8.7122221,20.3531666 8.19071067,20.4396587 C7.52829353,20.5494262 6.94878781,20.0426855 6.94878781,19.4087928 L6.94878781,3.69738976 C6.94878781,3.14639729 6.49590781,2.7 5.93709353,2.7 L5.83873638,2.7 C5.28006781,2.7 4.82718781,3.14639729 4.82718781,3.69738976 L4.82718781,19.4425563 C4.82718781,19.9640955 4.46916781,20.4504343 3.94765638,20.5370702 C3.28523924,20.6468377 2.70573353,20.1399533 2.70573353,19.5062042 L2.70573353,3.69738976 C2.70573353,3.14639729 2.25285353,2.7 1.69403924,2.7 C1.14702781,2.7 0.698956385,3.12858163 0.682927814,3.6676491 C0.553533528,7.98765994 0.0783592421,25.3484485 0.754910671,26.5455461 C2.06823353,28.8699154 3.91938781,29.0645946 5.20211067,31.5939877 C6.48468781,34.1233807 6.7313821,39.1336048 6.3366421,44.7275792 C6.23507924,46.1684928 6.09417353,47.6394343 5.92951638,49.1118127 C7.31875638,49.5925482 8.75229353,49.9800389 10.2231335,50.2659515 C10.0009192,48.4101054 9.81061638,46.5450642 9.68238781,44.7275792 C9.28764781,39.1336048 9.5343421,34.1233807 10.817065,31.5939877" id="Fill-1" fill="#2F313D"></path>
            </g>
        </g>
    </g>
</svg>