<?xml version="1.0" encoding="UTF-8"?>
<svg width="30px" height="27px" viewBox="0 0 30 27" version="1.1" xmlns="http://www.w3.org/2000/svg" xmlns:xlink="http://www.w3.org/1999/xlink">
    <!-- Generator: Sketch 47.1 (45422) - http://www.bohemiancoding.com/sketch -->
    <title>message-icon</title>
    <desc>Created with Sketch.</desc>
    <defs></defs>
    <g id="User-Interface" stroke="none" stroke-width="1" fill="none" fill-rule="evenodd">
        <g id="Signup-Page-Copy" transform="translate(-750.000000, -260.000000)" fill="#2F313D">
            <path d="M779.988317,271.285702 C779.988317,265.359355 773.275139,260.571403 764.988299,260.571403 C756.701459,260.571403 749.988281,265.376096 749.988281,271.285702 C749.988281,274.684143 752.198105,277.714281 755.64677,279.672988 C754.859939,282.468751 753.65458,283.473216 752.599892,284.661834 C752.348775,284.963173 752.064177,285.21429 752.147882,285.632817 L752.147882,285.649558 C752.231587,286.051344 752.58315,286.319202 752.951454,286.285719 C753.604357,286.202014 754.25726,286.084826 754.859939,285.917415 C757.756148,285.180807 760.367758,283.808038 762.560841,281.866071 C763.347672,281.949777 764.167986,282 764.988299,282 C773.275139,282 779.988317,277.212048 779.988317,271.285702 Z" id="message-icon"></path>
        </g>
    </g>
</svg>