<?xml version="1.0" encoding="UTF-8"?>
<svg width="52px" height="83px" viewBox="0 0 52 83" version="1.1" xmlns="http://www.w3.org/2000/svg" xmlns:xlink="http://www.w3.org/1999/xlink">
    <!-- Generator: Sketch 47.1 (45422) - http://www.bohemiancoding.com/sketch -->
    <title>resources-icon</title>
    <desc>Created with Sketch.</desc>
    <defs></defs>
    <g id="User-Interface" stroke="none" stroke-width="1" fill="none" fill-rule="evenodd">
        <g id="Landing-Page" transform="translate(-1014.000000, -1811.000000)">
            <g id="resources-icon" transform="translate(1014.000000, 1811.000000)">
                <path d="M35.0528741,60.0956133 C35.0528741,53.2395157 30.4450251,50.6942483 26.5097158,50.6942483 C22.5231201,50.6942483 17.9667338,53.2395157 17.9667338,60.0956133 C17.9667338,67.0036912 22.5231201,69.6011157 26.5097158,69.6011157 C30.4450251,69.6011157 35.0528741,67.0036912 35.0528741,60.0956133 M39.7647059,60.1475936 C39.7647059,68.3544722 34.4836122,73.9122995 26.5097158,73.9122995 C18.4841805,73.9122995 13.254902,68.3544722 13.254902,60.1475936 C13.254902,51.9408918 18.4841805,46.3828877 26.5097158,46.3828877 C34.4836122,46.3828877 39.7647059,51.9408918 39.7647059,60.1475936" id="Fill-1" fill="#020303"></path>
                <g id="Group-5">
                    <path d="M46.6044669,26.5893007 C40.5839635,20.4584425 34.4281539,14.4575437 28.3169158,8.41425918 C26.1589158,6.2804389 25.7611335,6.27220697 23.6220587,8.4028746 C17.0284941,14.9707254 10.4480179,21.551362 3.86241243,28.1269194 C2.53853488,28.5204755 1.2825757,28.580551 0.438194748,27.241024 C-0.610471919,25.5776495 0.418208353,24.3313009 1.48049407,23.262902 C6.43605869,18.2792591 11.4560043,13.358494 16.4409294,8.40340005 C18.7292832,6.12893643 20.9937594,3.83117822 23.2623036,1.53727326 C25.2211471,-0.443117938 26.5680179,-0.54715547 28.5779771,1.44111736 C36.0256505,8.80869104 43.4153104,16.2340633 50.8401675,23.6244062 C51.9367662,24.7159245 52.3170383,25.8755752 51.4933512,27.2757032 C49.6454056,28.5551546 48.2076233,28.2218492 46.6044669,26.5893007 Z" id="Fill-3" fill="#FF6B6B"></path>
                    <path d="M46.6044669,30.3711189 C40.5839635,24.2402607 34.4281539,18.2393619 28.3169158,12.1960774 C26.1589158,10.0622571 25.7611335,10.0540252 23.6220587,12.1846928 C17.0284941,18.7525436 10.4480179,25.3331802 3.86241243,31.9087375 C2.53853488,32.3022937 1.2825757,32.3623692 0.438194748,31.0228422 C-0.610471919,29.3594677 0.418208353,28.1131191 1.48049407,27.0447202 C6.43605869,22.0610772 11.4560043,17.1403122 16.4409294,12.1852182 C18.7292832,9.91075462 20.9937594,7.61299641 23.2623036,5.31909144 C25.2211471,3.33870024 26.5680179,3.23466271 28.5779771,5.22293554 C36.0256505,12.5905092 43.4153104,20.0158815 50.8401675,27.4062244 C51.9367662,28.4977427 52.3170383,29.6573934 51.4933512,31.0575214 C49.6454056,32.3369728 48.2076233,32.0036674 46.6044669,30.3711189 Z" id="Fill-3" fill="#FFFFFF"></path>
                    <path d="M46.6044669,36.9893007 C40.5839635,30.8584425 34.4281539,24.8575437 28.3169158,18.8142592 C26.1589158,16.6804389 25.7611335,16.672207 23.6220587,18.8028746 C17.0284941,25.3707254 10.4480179,31.951362 3.86241243,38.5269194 C2.53853488,38.9204755 1.2825757,38.980551 0.438194748,37.641024 C-0.610471919,35.9776495 0.418208353,34.7313009 1.48049407,33.662902 C6.43605869,28.6792591 11.4560043,23.758494 16.4409294,18.8034 C18.7292832,16.5289364 20.9937594,14.2311782 23.2623036,11.9372733 C25.2211471,9.95688206 26.5680179,9.85284453 28.5779771,11.8411174 C36.0256505,19.208691 43.4153104,26.6340633 50.8401675,34.0244062 C51.9367662,35.1159245 52.3170383,36.2755752 51.4933512,37.6757032 C49.6454056,38.9551546 48.2076233,38.6218492 46.6044669,36.9893007 Z" id="Fill-3-Copy" fill="#2F313D"></path>
                    <path d="M46.6044669,43.3711189 C40.5839635,37.2402607 34.4281539,31.2393619 28.3169158,25.1960774 C26.1589158,23.0622571 25.7611335,23.0540252 23.6220587,25.1846928 C17.0284941,31.7525436 10.4480179,38.3331802 3.86241243,44.9087375 C2.53853488,45.3022937 1.2825757,45.3623692 0.438194748,44.0228422 C-0.610471919,42.3594677 0.418208353,41.1131191 1.48049407,40.0447202 C6.43605869,35.0610772 11.4560043,30.1403122 16.4409294,25.1852182 C18.7292832,22.9107546 20.9937594,20.6129964 23.2623036,18.3190914 C25.2211471,16.3387002 26.5680179,16.2346627 28.5779771,18.2229355 C36.0256505,25.5905092 43.4153104,33.0158815 50.8401675,40.4062244 C51.9367662,41.4977427 52.3170383,42.6573934 51.4933512,44.0575214 C49.6454056,45.3369728 48.2076233,45.0036674 46.6044669,43.3711189 Z" id="Fill-3" fill="#FFFFFF"></path>
                </g>
                <path d="M28.1855118,23.7529217 C27.4753973,23.0480806 26.7534358,22.7035657 26.0252855,22.6965384 C25.2465642,22.7035657 24.5246027,23.0480806 23.8144882,23.7529217 C16.2652776,31.2470414 8.72702992,38.7524048 1.18383127,46.2528491 C0.315992098,47.1158052 -0.00228632615,48.1537417 1.23513573e-05,49.3670101 C0.0187554141,59.3969416 -0.00599957443,69.4272245 0.0221150197,79.4573317 C0.0293646949,82.0611329 0.920897925,82.8308012 3.60593008,82.8471397 C11.2653004,82.8936958 18.1043964,80.365614 24.4360152,76.2755327 C24.9797408,75.9245175 25.4967664,75.6053011 26,75.5601505 C26.5032336,75.6053011 27.0202592,75.9245175 27.5639848,76.2755327 C33.8956036,80.365614 40.7345228,82.8936958 48.3940699,82.8471397 C51.0791021,82.8308012 51.9704585,82.0611329 51.977885,79.4573317 C52.0059996,69.4272245 51.9812446,59.3969416 51.9999876,49.3670101 C52.0022863,48.1537417 51.6840079,47.1158052 50.8161687,46.2528491 C43.2729701,38.7524048 35.7347224,31.2470414 28.1855118,23.7529217 Z" id="Fill-6" fill="#F16B6C"></path>
                <path d="M27.7881191,30.1579992 C27.2071504,29.5917614 26.6164407,29.3148304 26.0207686,29.3090909 C25.3837431,29.3148304 24.7928496,29.5917614 24.2118809,30.1579992 C18.0351599,36.180531 11.8676285,42.2120308 5.69586987,48.2394053 C4.9858787,48.9328089 4.72544445,49.7670098 4.72728238,50.7420078 C4.74272097,58.8024217 4.72250377,66.8628356 4.74547786,74.9230702 C4.75154301,77.0154776 5.48083242,77.6340883 7.67770647,77.6471816 C13.9444859,77.6846677 19.5400544,73.9843028 24.7204353,70.6975408 C25.1652136,70.4154083 25.5883044,70.1589243 26,70.1226937 C26.4118794,70.1589243 26.8347864,70.4154083 27.2795647,70.6975408 C32.4601294,73.9843028 38.0556979,77.6846677 44.3224773,77.6471816 C46.5191676,77.6340883 47.2486408,77.0154776 47.2545221,74.9230702 C47.2774962,66.8628356 47.2574628,58.8024217 47.2727176,50.7420078 C47.2745555,49.7670098 47.0141213,48.9328089 46.3041301,48.2394053 C40.1323715,42.2120308 33.9648401,36.180531 27.7881191,30.1579992 Z" id="Fill-8" fill="#FFFFFF"></path>
                <path d="M37.6327986,59.6259239 C37.6327986,65.9261578 25.9073084,74.7279857 25.9073084,74.7279857 C25.9073084,74.7279857 14.1818182,65.9261578 14.1818182,59.6259239 C14.1818182,53.3255162 19.4315896,48.2181818 25.9073084,48.2181818 C32.3830272,48.2181818 37.6327986,53.3255162 37.6327986,59.6259239" id="Fill-10" fill="#F16B6C"></path>
                <circle id="Oval-5" fill="#2F313D" cx="26.4727273" cy="59.5636364" r="2.83636364"></circle>
            </g>
        </g>
    </g>
</svg>