<?xml version="1.0" encoding="UTF-8"?>
<svg width="67px" height="67px" viewBox="0 0 67 67" version="1.1" xmlns="http://www.w3.org/2000/svg" xmlns:xlink="http://www.w3.org/1999/xlink">
    <!-- Generator: Sketch 47.1 (45422) - http://www.bohemiancoding.com/sketch -->
    <title>services-icon</title>
    <desc>Created with Sketch.</desc>
    <defs>
        <polygon id="path-1" points="1.13033378e-15 35.416942 1.13033378e-15 0.132552903 38.9312332 0.132552903 38.9312332 35.416942"></polygon>
    </defs>
    <g id="User-Interface" stroke="none" stroke-width="1" fill="none" fill-rule="evenodd">
        <g id="services-icon" transform="translate(3.000000, 3.000000)">
            <circle id="Oval-5" stroke="#2F313D" stroke-width="4.5" cx="30.5" cy="30.5" r="30.5"></circle>
            <g id="Page-1" transform="translate(11.000000, 12.000000)">
                <path d="M5.19416608,15.2394085 C5.39674558,13.6577724 5.80314488,12.1333272 6.49150177,10.6907406 C7.8494735,7.84456749 9.98758304,5.78748975 12.8337562,4.45721767 C14.6708905,3.59852862 16.6115194,3.14720353 18.633318,3.03985018 C22.7170177,2.82307633 26.3299611,4.02063816 29.408894,6.71811519 C31.8311661,8.84010106 33.3521661,11.5034014 33.9568728,14.6753555 C34.0402473,15.1124862 34.0855866,15.5570587 34.1538021,16.0347053 C33.9441943,16.0016311 33.7643534,15.9780657 33.5865795,15.9444403 C31.7322191,15.5924756 29.9630247,15.0085781 28.3578233,13.9922353 C27.5497102,13.480412 26.8365477,12.8633025 26.3273428,12.0387901 C25.6870813,11.0023272 25.5860671,9.89833781 25.9243887,8.74142968 C25.9410636,8.68423887 25.956636,8.62649682 25.9709682,8.56861696 C25.9727597,8.56131307 25.9629753,8.55111519 25.9381696,8.50095265 C25.8950353,8.56117527 25.8655442,8.61326714 25.8258551,8.6562636 C24.2417385,10.3779138 22.5115442,11.929094 20.5381166,13.1983166 C18.2110707,14.6949244 15.6810318,15.6613802 12.9463463,16.0702601 C11.7522297,16.2488608 10.5479152,16.3593837 9.34856184,16.5028431 C8.60769965,16.5914544 7.87069611,16.6967406 7.16277032,16.9512742 C6.18032862,17.3043413 5.52518375,17.9750587 5.18327915,18.9575004 C5.16398587,19.0130375 5.14262544,19.0677477 5.12236749,19.1227336 C5.00936396,17.8219527 5.02907067,16.5287512 5.19416608,15.2394085 Z" id="Fill-1" fill="#2F313D"></path>
                <g id="Group-5" transform="translate(0.000000, 0.005375)">
                    <mask id="mask-2" fill="white">
                        <use xlink:href="#path-1"></use>
                    </mask>
                    <g id="Clip-4"></g>
                    <path d="M34.0794678,23.6285841 C34.3036834,22.9090823 34.556012,22.2114922 34.738747,21.4964004 C36.4242912,14.899888 33.6962205,7.98875724 27.9713512,4.31958763 C26.0067435,3.0605629 23.8667046,2.27959823 21.5557823,1.96525548 C13.5691887,0.879319081 5.992853,6.06742155 4.11864806,13.90463 C2.6147364,20.1943792 5.06112509,26.7259834 10.330535,30.4683297 C12.4092488,31.9448173 14.7158989,32.8589057 17.2404254,33.2223085 C17.3393724,33.2366406 17.4100686,33.2213438 17.4873795,33.1480293 C17.9092134,32.7481071 18.5103371,32.6705205 19.0144431,32.9404887 C19.5141392,33.2081141 19.7832806,33.7632095 19.6884678,34.3298809 C19.5977894,34.8710576 19.153217,35.3143898 18.5931604,35.4002449 C18.1761498,35.4643261 17.809164,35.342365 17.491376,35.0617855 C17.4310155,35.0085912 17.347641,34.9611848 17.269641,34.9511247 C14.6825491,34.6132166 12.2777788,33.7651389 10.082065,32.3531459 C6.84726996,30.2727784 4.53221343,27.4334958 3.13648198,23.8488032 C3.0752947,23.6914251 2.99398728,23.611358 2.83178587,23.5589905 C2.18614982,23.350623 1.69995901,22.9205205 1.29796961,22.3898173 C0.676312367,21.5691636 0.326690459,20.6305452 0.147951943,19.6268809 C-0.136072792,18.0324286 -0.0226558304,16.4706371 0.587425442,14.9595594 C0.846644523,14.3175064 1.19075406,13.7210682 1.705747,13.2514145 C1.96772226,13.0124534 2.27999788,12.8258597 2.58069753,12.6333403 C2.6733053,12.5739445 2.73835124,12.5222661 2.77197668,12.4144993 C3.65119929,9.59864417 5.14284594,7.15335795 7.25904382,5.10082792 C9.94632297,2.49444276 13.1437717,0.884969258 16.850012,0.33014947 C22.8138424,-0.562854064 28.6836869,1.60474664 32.6484572,6.14803993 C34.2668883,8.00281378 35.4367505,10.1123968 36.1605244,12.4665912 C36.2000756,12.5954428 36.2593336,12.6753721 36.3870827,12.7350435 C37.0408495,13.0405664 37.5081604,13.5512873 37.8856198,14.1504816 C38.429277,15.0134428 38.7185385,15.9663933 38.8533159,16.9699198 C39.040323,18.3634463 38.8981039,19.7187996 38.3485208,21.0197184 C37.96927,21.9171318 37.4220297,22.6837643 36.5648565,23.1891106 C35.8019449,23.638782 34.9730226,23.7479269 34.1062028,23.6401601 C34.0911816,23.6382307 34.0772629,23.6276194 34.0794678,23.6285841" id="Fill-3" fill="#2F313D" mask="url(#mask-2)"></path>
                </g>
                <path d="M27.8142625,19.8713269 C27.8015841,21.5840194 26.4188067,22.9057473 24.733676,22.8068004 C23.4782343,22.7330724 22.4048385,21.7584859 22.1350081,20.4472314 C21.8458845,19.0425424 22.6433862,17.5821784 23.9640117,17.0976413 C25.6459728,16.480394 27.4778703,17.5672951 27.7603792,19.3524753 C27.7875276,19.5239099 27.7967608,19.6983763 27.8142625,19.8713269" id="Fill-6" fill="#2F313D"></path>
                <path d="M16.6813198,19.8693011 C16.6683657,21.5865413 15.2738746,22.912817 13.5837827,22.805877 C12.3244823,22.7262233 11.2531537,21.7378558 10.9942102,20.416817 C10.7195565,19.0159866 11.5253269,17.566923 12.8423693,17.0932728 C14.51303,16.4922869 16.3173657,17.5541067 16.6188922,19.3184777 C16.6500371,19.5002481 16.6610618,19.6856014 16.6813198,19.8693011" id="Fill-8" fill="#2F313D"></path>
                <path d="M23.576823,27.1162039 C23.7767841,27.5139212 23.7886357,27.9448505 23.6550986,28.3815678 C23.4177912,29.1574336 22.8949431,29.7050873 22.2138901,30.1059742 C21.1669537,30.7222569 20.0289254,30.8768788 18.8429396,30.693317 C17.8147452,30.5342852 16.911406,30.1055608 16.1801905,29.3522958 C15.7900527,28.9503064 15.4984484,28.4898859 15.4369855,27.915635 C15.408459,27.6500767 15.4549007,27.3977481 15.5786534,27.1886915 C18.2609714,28.3912145 20.9088371,28.3928682 23.576823,27.1162039" id="Fill-10" fill="#2F313D"></path>
            </g>
        </g>
    </g>
</svg>