<?xml version="1.0" encoding="UTF-8"?>
<svg width="67px" height="67px" viewBox="0 0 67 67" version="1.1" xmlns="http://www.w3.org/2000/svg" xmlns:xlink="http://www.w3.org/1999/xlink">
    <!-- Generator: Sketch 47.1 (45422) - http://www.bohemiancoding.com/sketch -->
    <title>shelter-icon</title>
    <desc>Created with Sketch.</desc>
    <defs>
        <polygon id="path-1" points="3.53803009e-15 34.7438054 3.53803009e-15 7.48423206 23.9595397 7.48423206 23.9595397 34.7438054"></polygon>
    </defs>
    <g id="User-Interface" stroke="none" stroke-width="1" fill="none" fill-rule="evenodd">
        <g id="shelter-icon" transform="translate(3.000000, 3.000000)">
            <circle id="Oval-5" stroke="#2F313D" stroke-width="4.5" cx="30.5" cy="30.5" r="30.5"></circle>
            <g id="Group-7" transform="translate(17.000000, 7.000000)">
                <path d="M16.0004601,24.39035 C16.0004601,21.2987082 13.8427782,20.1510163 12,20.1510163 C10.1331743,20.1510163 7.99953986,21.2987082 7.99953986,24.39035 C7.99953986,27.5054349 10.1331743,28.6765699 12,28.6765699 C13.8427782,28.6765699 16.0004601,27.5054349 16.0004601,24.39035 M18.2068966,24.4137931 C18.2068966,28.1144455 15.7338712,30.6206897 12,30.6206897 C8.24186143,30.6206897 5.79310345,28.1144455 5.79310345,24.4137931 C5.79310345,20.7131407 8.24186143,18.2068966 12,18.2068966 C15.7338712,18.2068966 18.2068966,20.7131407 18.2068966,24.4137931" id="Fill-1" fill="#2F313D"></path>
                <path d="M23.7945995,12.7293548 C22.9407062,13.3264484 22.2762864,13.1709158 21.535459,12.4090151 C18.7534379,9.54777295 15.9089411,6.74722853 13.0849502,3.92687244 C12.0878199,2.93101978 11.9040062,2.92718807 10.9155833,3.9215603 C7.86872601,6.98671039 4.8279639,10.0578693 1.78476371,13.1266334 C1.17302383,13.3102942 0.592674199,13.3383354 0.202451116,12.7131571 C-0.28207334,11.9368875 0.193264786,11.3551643 0.68414566,10.8566502 C2.97406684,8.53080234 5.29368032,6.23425839 7.59722862,3.92177801 C8.65461432,2.86030732 9.70102866,1.78795109 10.7493151,0.717467178 C11.6544515,-0.206802175 12.2768145,-0.25535168 13.2055916,0.672531672 C16.6471563,4.11092513 20.0617715,7.57627119 23.4927567,11.0253325 C23.9994851,11.5346886 24.1752009,12.0759176 23.7945995,12.7293548" id="Fill-3" fill="#2F313D"></path>
                <mask id="mask-2" fill="white">
                    <use xlink:href="#path-1"></use>
                </mask>
                <g id="Clip-6"></g>
                <path d="M23.4140875,18.161136 C19.9384275,14.7623976 16.4651978,11.3614115 12.9867602,7.96547188 C12.6596137,7.64605958 12.3269121,7.48995806 11.9914763,7.4867351 L11.9914763,7.48423307 C11.9875703,7.48419066 11.9836644,7.48550529 11.9797584,7.48550529 C11.9758958,7.48550529 11.9719899,7.48419066 11.9680839,7.48423307 L11.9680839,7.4867351 C11.6326481,7.48995806 11.2999465,7.64605958 10.9728,7.96547188 C7.49436239,11.3614115 4.02113273,14.7623976 0.545472694,18.161136 C0.145588427,18.552132 -0.00101555154,19.0225145 -1.73598553e-05,19.5722836 C0.00866256781,24.1173357 -0.00270813743,28.6624301 0.0102249548,33.2074822 C0.0135667269,34.3873399 0.424344304,34.7361405 1.66149439,34.7435194 C5.19066618,34.7645959 8.34182712,33.6190881 11.2591942,31.7656741 C11.5096535,31.6065616 11.7478741,31.4619949 11.9797584,31.4415121 C12.2116861,31.4619949 12.4499067,31.6065616 12.700366,31.7656741 C15.6177331,33.6190881 18.768894,34.7645959 22.2980658,34.7435194 C23.5352159,34.7361405 23.9459501,34.3873399 23.9493353,33.2074822 C23.9622684,28.6624301 23.9508976,24.1173357 23.9595342,19.5722836 C23.9605758,19.0225145 23.8139284,18.552132 23.4140875,18.161136" id="Fill-5" fill="#2F313D"></path>
                <path d="M12.7565199,11.1384653 C12.5107254,10.8863704 12.2607888,10.7631297 12.0087811,10.7606207 C11.7392522,10.7631297 11.4892742,10.8863704 11.2435211,11.1384653 C8.63028768,13.8190572 6.02094784,16.5036465 3.40982689,19.1864498 C3.10939762,19.4950619 2.99925817,19.8663575 3.00000376,20.3003366 C3.00650691,23.8879683 2.99797411,27.4756425 3.00770813,31.0632741 C3.01023484,31.9946389 3.31882412,32.2699105 4.24823704,32.2757366 C6.89957816,32.2924068 9.26693429,30.6454549 11.4586638,29.1824286 C11.6467997,29.0568489 11.8257815,28.9427513 11.9999998,28.9265914 C12.1742181,28.9427513 12.3531999,29.0568489 12.5413772,29.1824286 C14.7330653,30.6454549 17.1004628,32.2924068 19.751804,32.2757366 C20.6812169,32.2699105 20.9898062,31.9946389 20.9923329,31.0632741 C21.0020669,27.4756425 20.9934927,23.8879683 20.9999958,20.3003366 C21.0007828,19.8663575 20.890602,19.4950619 20.5902141,19.1864498 C17.9790932,16.5036465 15.3697533,13.8190572 12.7565199,11.1384653 Z" id="Fill-8" fill="#F3F3F3"></path>
                <path d="M17.3793103,24.3763461 C17.3793103,27.3265796 12,31.4482759 12,31.4482759 C12,31.4482759 6.62068966,27.3265796 6.62068966,24.3763461 C6.62068966,21.4261127 9.02908512,19.0344828 12,19.0344828 C14.9709149,19.0344828 17.3793103,21.4261127 17.3793103,24.3763461" id="Fill-10" fill="#2F313D"></path>
            </g>
            <path d="M32.1750357,39.9269728 C32.1750357,39.9269728 34.4535786,39.3030442 37.8917367,38.8588697 C41.329867,38.4146404 43.190895,37.9213997 44.370507,36.73517 C45.5500635,35.5489952 47.4418365,34.8648102 46.3146603,38.210833 C46.3146603,38.210833 45.6499916,41.1395595 41.3320889,42.1319651 C38.6518064,42.7914661 33.4895423,42.8693029 36.3693198,44.6863179 C36.3693198,44.6863179 39.7425164,45.8944614 43.164205,43.6877413 C46.5859769,41.4808292 48.9850555,38.2345022 51.0330806,35.324947 C53.0810779,32.4153095 54.1387655,31.9924181 54.4895413,31.6557287 C54.8402893,31.3191215 57.0372344,30.5843618 55.3908934,33.4586463 C55.3908934,33.4586463 53.0886878,36.7200305 51.5141683,40.3878501 C49.9396767,44.0556971 46.6676024,50.2964099 37.6093386,51.8237721 C31.231385,52.6910574 27.0631104,54.8538818 26.8959961,59.236084 C26.8959961,59.236084 25.762085,57.3411865 27.9725308,61.8245458 C27.9725308,62.8245458 23.5255937,61.2746361 24.0845576,52.1679216 C24.0845576,52.1679216 25.2182605,42.5629199 32.1750357,39.9269728 Z" id="Fill-12" fill="#2F313D"></path>
        </g>
    </g>
</svg>