<?xml version="1.0" encoding="UTF-8"?>
<svg width="67px" height="67px" viewBox="0 0 67 67" version="1.1" xmlns="http://www.w3.org/2000/svg" xmlns:xlink="http://www.w3.org/1999/xlink">
    <!-- Generator: Sketch 47.1 (45422) - http://www.bohemiancoding.com/sketch -->
    <title>submit-resource-icon</title>
    <desc>Created with Sketch.</desc>
    <defs></defs>
    <g id="User-Interface" stroke="none" stroke-width="1" fill="none" fill-rule="evenodd">
        <g id="submit-resource-icon" transform="translate(3.000000, 3.000000)">
            <circle id="Oval-5" stroke="#2F313D" stroke-width="4.5" cx="30.5" cy="30.5" r="30.5"></circle>
            <path d="M31.024023,17.2870941 C27.4779697,17.2792941 24.4808883,20.1908353 24.4734927,23.6506706 C24.465943,27.2626824 27.3664189,30.2016 30.973332,30.2363176 C34.467924,30.2701176 37.507068,27.3128471 37.5295631,23.8569882 C37.5529826,20.2552235 34.6216916,17.2950471 31.024023,17.2870941 M31.081031,47.4117647 L30.9269552,47.4117647 C30.7582423,47.2254824 30.5975413,47.0312471 30.4195838,46.8544471 C26.8200663,43.2792941 23.5576665,39.4380235 20.9963113,35.0481529 C18.7329386,31.1684941 17.3949449,27.1013294 18.2708655,22.5280824 C19.1326111,18.0274824 21.5952037,14.9553529 26.0877443,13.6588706 C27.2081831,13.3355529 28.387787,13.2141176 29.5402735,13 L32.4677127,13 C33.1226887,13.1001765 33.7813625,13.1815412 34.4321784,13.3034353 C38.7208767,14.1066824 41.8484603,16.3436 43.1955445,20.5852706 C44.2791592,23.9976941 44.3164455,27.4321412 43.0108077,30.8343176 C41.2769933,35.3520471 38.4726607,39.1907176 35.3339837,42.8120588 C33.967486,44.3888824 32.5017634,45.8811294 31.081031,47.4117647" id="Fill-1" fill="#2F313D"></path>
        </g>
    </g>
</svg>