<?xml version="1.0" encoding="UTF-8"?>
<svg width="47px" height="29px" viewBox="0 0 47 29" version="1.1" xmlns="http://www.w3.org/2000/svg" xmlns:xlink="http://www.w3.org/1999/xlink">
    <!-- Generator: Sketch 47.1 (45422) - http://www.bohemiancoding.com/sketch -->
    <title>toggle-off</title>
    <desc>Created with Sketch.</desc>
    <defs></defs>
    <g id="User-Interface" stroke="none" stroke-width="1" fill="none" fill-rule="evenodd">
        <g id="Signup-Page-Copy" transform="translate(-896.000000, -283.000000)" fill="#2F313D">
            <path d="M922.659908,297.714269 C922.659908,291.419618 917.525973,286.285684 911.231323,286.285684 C904.936672,286.285684 899.802738,291.419618 899.802738,297.714269 C899.802738,304.008919 904.936672,309.142854 911.231323,309.142854 C917.525973,309.142854 922.659908,304.008919 922.659908,297.714269 Z M939.802785,297.714269 C939.802785,291.419618 934.668851,286.285684 928.3742,286.285684 L919.758119,286.285684 C923.240266,288.897294 925.517054,293.049085 925.517054,297.714269 C925.517054,302.379453 923.240266,306.531243 919.758119,309.142854 L928.3742,309.142854 C934.668851,309.142854 939.802785,304.008919 939.802785,297.714269 Z M942.659932,297.714269 C942.659932,305.593742 936.253674,312 928.3742,312 L911.231323,312 C903.351849,312 896.945592,305.593742 896.945592,297.714269 C896.945592,289.834795 903.351849,283.428537 911.231323,283.428537 L928.3742,283.428537 C936.253674,283.428537 942.659932,289.834795 942.659932,297.714269 Z" id="toggle-off"></path>
        </g>
    </g>
</svg>