<?xml version="1.0" encoding="UTF-8"?>
<svg width="67px" height="67px" viewBox="0 0 67 67" version="1.1" xmlns="http://www.w3.org/2000/svg" xmlns:xlink="http://www.w3.org/1999/xlink">
    <!-- Generator: Sketch 47.1 (45422) - http://www.bohemiancoding.com/sketch -->
    <title>transportation-icon</title>
    <desc>Created with Sketch.</desc>
    <defs></defs>
    <g id="User-Interface" stroke="none" stroke-width="1" fill="none" fill-rule="evenodd">
        <g id="transportation-icon" transform="translate(3.000000, 3.000000)">
            <circle id="Oval-5" stroke="#2F313D" stroke-width="4.5" cx="30.5" cy="30.5" r="30.5"></circle>
            <path d="M20.4830384,39.9999991 C21.8881425,39.998837 23.0134007,38.8800131 22.9998794,37.4976143 C22.9864136,36.1221881 21.8404856,34.9822251 20.4893557,35.0002099 C19.0934504,35.0187482 18.0008871,36.1180931 18.0000005,37.5048636 C17.9991692,38.9055793 19.0894051,40.0011612 20.4830384,39.9999991 M40.5030352,39.9998379 C41.8765007,40.0152695 42.9832901,38.9273141 42.9998118,37.5455501 C43.0166108,36.1426574 41.9064394,35.0004426 40.5258219,35.0000001 C39.1472556,34.9995577 38.0343122,36.0932652 38.0007143,37.48139 C37.96756,38.8516495 39.0927007,39.9840191 40.5030352,39.9998379 M30.4960649,16.9986965 C32.643728,16.9986965 34.7913421,16.9977498 36.9389561,16.9999983 C37.1839803,17.0002745 37.4074828,16.9665459 37.598335,16.8331704 C37.981265,16.5656302 38.1124544,15.998715 37.8954232,15.5346027 C37.716631,15.1523067 37.4034138,15.0001141 36.7929123,15.0000747 C32.6038221,14.9999958 28.4146829,14.9999563 24.2255927,15.0000747 C23.508463,15.0001141 23.1880392,15.2110456 23.0389558,15.7798938 C22.8517805,16.4941494 23.3527123,16.998736 24.2491734,16.9987754 C26.3314869,16.9988149 28.4137514,16.9987754 30.4960649,16.9986965 M30.4976492,29.9991143 C34.151087,29.9991143 37.8045764,29.9991143 41.4580142,29.9990158 C41.5609041,29.9990158 41.6641542,30.0024626 41.7666837,29.9964553 C42.5927876,29.9480521 43.0958616,29.3640625 42.9846851,28.5872972 C42.8291922,27.5015985 42.6725156,26.4160475 42.521089,25.3298071 C42.2758828,23.5705507 42.0356178,21.8106542 41.7909778,20.0513485 C41.705588,19.4374208 41.1861463,19.0007581 40.5392632,19.0006596 C33.8412337,18.9997733 27.1432043,18.999724 20.4451748,19.0008566 C19.8187256,19.000955 19.3118427,19.4254062 19.2248058,20.0207703 C19.0685924,21.0898258 18.9161363,22.159423 18.7646582,23.2291187 C18.5247535,24.922984 18.2844371,26.6168001 18.0511721,28.3115025 C18.018025,28.5523859 17.9729882,28.8077459 18.0208559,29.0399138 C18.1497899,29.665413 18.6561581,29.9984249 19.408556,29.9986219 C23.1049204,29.9995575 26.8012848,29.9990651 30.4976492,29.9991143 M16,43.58937 L16,28.8053184 C16.0179919,28.7605285 16.0462648,28.7170517 16.0524928,28.6707543 C16.2052754,27.5341331 16.3573661,26.3973659 16.5061451,25.2602098 C16.6443958,24.2032473 16.7764681,23.1454582 16.9153614,22.088593 C17.0742237,20.8795591 17.2388692,19.6713033 17.3985718,18.4624153 C17.5318797,17.4537442 17.9370923,16.5876614 18.7458865,15.9254428 C19.5111343,15.2988714 20.4045496,14.8995561 21.3279184,14.5819422 C23.7436243,13.7510687 26.2450387,13.3163495 28.7904443,13.1078166 C29.1572512,13.0777135 29.5230695,13.036182 29.8893327,13 L31.1744667,13 C31.2695666,13.0188205 31.3638757,13.0475619 31.4598653,13.0548566 C31.9761926,13.0941024 32.4988467,13.0914277 33.0084518,13.1707947 C34.4509158,13.3955706 35.8953075,13.6186445 37.3253157,13.9075171 C38.753841,14.1960492 40.1295275,14.6571268 41.4205434,15.3466278 C42.8208946,16.0944382 43.5306346,17.2526519 43.6724442,18.799336 C43.7601298,19.7560684 43.9155322,20.7067705 44.0403879,21.6601959 C44.1631182,22.5976215 44.2852059,23.535193 44.4084799,24.47257 C44.5317045,25.4098497 44.6584385,26.3467403 44.7790928,27.284409 C44.8563986,27.8852057 44.9863948,28.4867804 44.9886191,29.0884524 C45.0060672,33.8128323 44.9982576,38.5373094 44.9982576,43.2617865 L44.9982576,43.5742941 L44.7053459,43.5742941 C44.0875424,43.5742941 43.4695907,43.5844582 42.8522321,43.5691392 C42.6148777,43.5632547 42.5409331,43.6335276 42.5438988,43.8680785 C42.5531913,44.6133601 42.5567501,45.3594197 42.5319372,46.104215 C42.4955086,47.1969704 41.6196898,47.9985675 40.4939124,47.9984702 C39.362599,47.9984216 38.478328,47.1747943 38.4536633,46.078586 C38.4370554,45.3415233 38.4375003,44.603731 38.4485722,43.8665223 C38.452131,43.629248 38.3712665,43.5693823 38.1370755,43.5696255 C33.0552109,43.5757531 27.9733462,43.5742455 22.8914322,43.5748777 C22.8038453,43.5748777 22.7163079,43.5829992 22.6043036,43.5885432 C22.6043036,43.7149858 22.6057864,43.8185228 22.6040564,43.9220111 C22.5915511,44.6910736 22.6092958,45.4621786 22.5577422,46.2287123 C22.4910635,47.2196328 21.6922539,47.9247445 20.6283606,47.9956496 C19.6817606,48.0588222 18.7660532,47.4272903 18.5481241,46.5380588 C18.4891562,46.2975262 18.4816432,46.0412369 18.4780843,45.791756 C18.468693,45.1355192 18.4753658,44.4789906 18.4733392,43.8226079 C18.4729438,43.7033142 18.4923197,43.571279 18.296485,43.5734674 C17.5310394,43.5819293 16.765495,43.5845554 16,43.58937" id="Fill-1" fill="#231F20"></path>
        </g>
    </g>
</svg>